<?xml version="1.0"?>
<svg version="1.1" xmlns="http://www.w3.org/2000/svg" width="56px" height="36px" style=""><path fill="#fcfcfc" d="M32.492,32.7c0,0.224-0.14,0.42-0.532,0.42l-2.66,0c-0.532,0-0.84-0.196-1.092-0.616l-3.864-6.524l-0.028,0l-3.864,6.524c-0.252,0.448-0.532,0.616-1.12,0.616l-2.324,0c-0.28,0-0.504-0.14-0.504-0.392c0-0.112,0.056-0.252,0.14-0.392l5.796-9.184l-5.432-8.68c-0.084-0.112-0.084-0.252-0.084-0.364c0-0.224,0.168-0.364,0.392-0.364l2.772,0c0.42,0,0.756,0.196,1.008,0.616l3.444,5.796l0.028,0l3.528-5.88c0.224-0.392,0.448-0.532,0.952-0.532l2.576,0c0.28,0,0.42,0.168,0.42,0.364c0,0.14-0.056,0.28-0.14,0.392l-5.516,8.372l5.992,9.436c0.084,0.112,0.112,0.252,0.112,0.392z"/><path fill="#" d=""/></svg>
