<?xml version="1.0" standalone="no"?>
<!DOCTYPE svg PUBLIC "-//W3C//DTD SVG 20010904//EN"
 "http://www.w3.org/TR/2001/REC-SVG-20010904/DTD/svg10.dtd">
<svg version="1.0" xmlns="http://www.w3.org/2000/svg"
 width="187.000000pt" height="270.000000pt" viewBox="0 0 187.000000 270.000000"
 preserveAspectRatio="xMidYMid meet">

<g transform="translate(0.000000,270.000000) scale(0.100000,-0.100000)"
fill="#000000" stroke="none">
<path d="M960 2307 c0 -2 9 -14 19 -26 l19 -22 -2 26 c-1 17 -7 25 -18 25 -10
0 -18 -2 -18 -3z"/>
<path d="M1018 2303 c7 -3 16 -2 19 1 4 3 -2 6 -13 5 -11 0 -14 -3 -6 -6z"/>
<path d="M880 2280 c-6 -11 -8 -20 -6 -20 3 0 10 9 16 20 6 11 8 20 6 20 -3 0
-10 -9 -16 -20z"/>
<path d="M935 2280 c-4 -6 -14 -9 -22 -6 -8 3 -12 2 -9 -3 3 -5 -1 -12 -10
-15 -24 -9 -9 -19 34 -23 20 -2 45 -5 54 -6 9 -1 14 -5 12 -9 -3 -4 7 -8 23
-9 25 0 26 -1 8 -9 -29 -13 -47 -12 -39 2 5 7 2 9 -8 5 -9 -3 -21 0 -27 6 -9
9 -11 8 -5 -6 5 -13 2 -16 -10 -11 -20 8 -21 -5 -1 -20 8 -6 24 -35 35 -63 16
-43 17 -53 6 -53 -8 0 -17 9 -21 19 -3 12 -12 18 -20 15 -8 -3 -16 3 -20 15
-3 12 -11 19 -16 15 -5 -3 -7 -10 -4 -15 4 -5 -1 -9 -10 -9 -10 0 -13 -5 -9
-12 4 -6 3 -8 -3 -5 -6 4 -16 1 -22 -7 -9 -11 -9 -15 1 -19 9 -4 10 -8 2 -14
-6 -4 -13 -16 -17 -26 -4 -10 -11 -15 -17 -12 -14 9 -12 -1 6 -37 l16 -31 17
34 c14 31 16 32 19 12 2 -13 12 -29 23 -36 10 -8 16 -17 12 -20 -3 -4 -15 1
-25 10 -19 17 -19 16 -14 -7 11 -47 11 -103 1 -106 -12 -4 -35 42 -35 69 0 10
-5 28 -11 39 -9 17 -13 18 -21 7 -7 -10 -8 -8 -3 7 3 13 -2 30 -14 45 -11 13
-20 18 -21 12 0 -7 4 -13 9 -13 5 0 11 -6 14 -14 3 -8 -1 -13 -11 -12 -15 1
-17 -10 -14 -81 3 -98 -5 -103 -60 -37 -38 45 -54 48 -19 3 55 -71 92 -215 60
-234 -5 -4 -14 -18 -19 -31 -5 -13 -13 -24 -17 -23 -21 4 -29 -3 -31 -27 -1
-14 -5 -30 -8 -35 -8 -14 -26 1 -20 17 3 8 -1 14 -8 14 -9 0 -12 -8 -9 -22 10
-49 12 -51 28 -38 10 9 15 9 15 1 0 -6 8 -11 18 -11 14 0 15 -2 2 -10 -13 -9
-13 -11 0 -20 8 -5 30 -13 47 -16 18 -3 30 -10 27 -15 -3 -5 0 -9 5 -9 6 0 11
5 11 12 0 7 6 6 18 -4 20 -18 42 -13 42 10 0 12 7 9 25 -13 13 -16 22 -35 20
-42 -2 -7 2 -10 11 -6 17 6 18 15 3 30 -8 8 0 12 26 15 38 4 54 -7 36 -25 -8
-8 -11 -8 -11 1 0 18 -30 15 -31 -3 -1 -8 -2 -21 -3 -27 -1 -7 -7 -18 -15 -24
-18 -14 -5 -22 42 -28 35 -5 36 -4 32 25 -3 27 -2 29 13 17 9 -7 13 -8 9 -2
-3 6 2 30 13 53 22 44 29 50 26 24 -1 -12 9 -19 37 -24 22 -3 40 -2 44 4 3 6
12 2 21 -9 14 -18 14 -18 8 0 -5 14 -2 17 9 12 23 -9 19 31 -5 44 -11 6 -20
17 -20 25 0 8 -7 15 -16 15 -13 0 -14 -3 -4 -15 14 -17 5 -69 -10 -60 -7 4 -6
13 0 25 9 16 6 21 -15 26 -23 6 -36 24 -16 24 14 0 8 34 -9 47 -11 9 -17 9
-22 0 -5 -8 -8 -6 -8 5 0 21 17 33 22 16 3 -9 9 -8 22 5 25 24 28 22 20 -18
-4 -23 -2 -35 5 -35 11 0 15 18 13 55 -2 20 -2 20 13 1 8 -11 15 -30 15 -42 0
-12 9 -33 20 -47 11 -14 20 -33 20 -44 0 -14 2 -15 9 -4 5 8 7 20 4 27 -2 6 0
15 5 18 6 3 12 -1 16 -9 6 -17 36 -21 36 -4 0 5 -4 8 -9 5 -5 -3 -15 1 -22 10
-11 14 -10 18 6 31 16 12 16 14 3 10 -12 -4 -15 -2 -12 7 3 8 1 17 -5 20 -6 4
-8 13 -5 21 3 8 -1 21 -9 30 -20 19 -27 19 -27 0 0 -8 -8 -15 -17 -14 -11 0
-13 3 -5 6 6 2 12 11 12 19 0 9 -4 13 -8 10 -4 -2 -9 10 -9 27 -2 26 0 28 7
12 7 -16 9 -17 9 -3 1 26 -15 30 -40 9 -19 -16 -22 -22 -11 -32 6 -7 12 -17
12 -22 0 -4 -6 -5 -12 0 -7 4 -26 8 -43 9 -16 1 -24 -1 -17 -3 25 -9 11 -24
-19 -19 -37 6 -51 16 -21 16 12 0 22 4 22 9 0 5 3 16 6 25 8 22 -52 51 -80 38
-11 -6 -29 -13 -38 -16 -20 -6 -25 -26 -7 -26 8 0 8 -4 2 -12 -6 -7 -13 -22
-17 -33 -6 -16 -5 -18 5 -7 20 19 31 14 17 -8 -9 -14 -24 -20 -47 -20 -26 0
-31 -3 -23 -12 8 -10 4 -13 -14 -14 -28 -2 -31 8 -9 30 12 11 13 23 6 53 -8
33 -9 34 -10 10 -1 -16 -5 -26 -11 -22 -5 3 -10 1 -10 -5 0 -7 7 -10 15 -6 12
4 13 2 2 -14 -6 -11 -15 -20 -20 -20 -4 0 -6 4 -3 9 4 5 -3 7 -14 4 -16 -4
-18 -8 -9 -19 9 -11 8 -14 -5 -14 -9 0 -16 6 -16 14 0 8 -4 16 -9 18 -13 4 17
89 40 114 11 11 17 22 15 25 -2 2 21 3 53 1 36 -2 85 4 136 18 44 12 102 25
128 29 41 6 47 5 44 -8 -2 -9 -9 -15 -16 -13 -7 1 -10 -2 -6 -8 3 -5 14 -10
25 -10 14 0 17 6 13 23 l-5 22 20 -22 c11 -12 22 -19 26 -16 12 12 6 -9 -11
-37 -14 -25 -15 -31 -2 -46 14 -17 15 -20 17 -68 2 -28 3 -29 16 -11 10 14 11
26 4 44 -6 17 -6 27 1 29 14 5 14 42 0 42 -5 0 -7 -5 -3 -12 4 -7 3 -8 -5 -4
-14 9 -5 26 14 26 9 0 12 6 9 15 -4 8 0 23 7 33 11 14 9 13 -9 -2 -19 -16 -22
-17 -22 -3 0 8 6 17 12 19 9 3 9 11 -3 29 -17 26 -15 49 4 49 7 0 13 14 13 30
1 17 -3 30 -8 30 -6 0 -8 7 -4 15 5 13 2 13 -19 -1 -27 -18 -33 -29 -12 -21 8
3 19 2 26 -2 8 -5 3 -18 -17 -43 l-28 -36 -22 34 c-26 40 -27 45 -7 38 8 -4
15 -14 15 -23 0 -12 2 -13 9 -3 4 8 7 30 5 50 -1 20 1 30 5 24 6 -10 10 -10
19 1 9 11 7 13 -9 12 -11 -1 -25 -8 -31 -16 -7 -10 -8 -5 -3 16 4 16 11 33 17
36 27 17 -6 42 -36 28 -19 -9 -20 -9 -4 4 21 17 12 30 -12 17 -12 -6 -17 -5
-17 4 0 8 10 12 24 10 13 -1 23 1 24 4 0 4 2 15 4 25 3 17 2 17 -14 3 -25 -22
-38 -20 -17 3 23 25 12 69 -20 81 -13 5 -24 14 -24 19 0 5 -9 13 -20 16 -11 4
-18 11 -15 16 4 5 26 -4 50 -21 47 -32 55 -35 55 -20 0 6 -4 10 -10 10 -13 0
-50 32 -50 43 0 4 4 6 9 3 5 -4 7 3 4 15 -5 19 -7 19 -15 5 -8 -15 -11 -15
-25 0 -9 8 -25 13 -36 10 -19 -5 -19 -4 1 15 14 13 19 25 14 37 -6 14 -7 13
-10 -6 -3 -20 -8 -23 -28 -18 -14 4 -24 2 -24 -4 0 -6 5 -8 10 -5 6 3 10 1 10
-4 0 -17 -18 -13 -39 8 -13 13 -21 16 -24 8 -4 -14 -57 -17 -57 -4 0 5 11 6
24 3 18 -4 24 -2 22 9 -3 21 -13 28 -21 15z m55 -104 c0 -2 -7 -7 -16 -10 -8
-3 -12 -2 -9 4 6 10 25 14 25 6z m60 -127 c0 -5 -4 -9 -8 -9 -5 0 -9 7 -9 15
0 8 4 12 9 9 4 -3 8 -9 8 -15z m-37 -25 c-3 -8 0 -14 6 -14 6 0 11 -6 11 -14
0 -8 -8 -14 -17 -13 -13 1 -18 10 -19 33 0 22 4 30 12 27 7 -2 10 -11 7 -19z
m83 -128 c5 -36 -7 -75 -22 -69 -8 3 -18 -6 -25 -21 -12 -26 -29 -35 -29 -16
0 5 -7 7 -15 4 -8 -4 -15 -4 -15 -1 0 9 63 102 72 105 5 2 5 8 2 14 -4 6 1 8
11 6 10 -1 19 -12 21 -22z m-272 -95 c-5 -6 -34 20 -34 30 0 5 8 1 18 -8 10
-10 17 -20 16 -22z m72 4 c-11 -8 -22 -12 -25 -9 -6 6 19 24 34 24 6 -1 1 -7
-9 -15z m280 -5 c5 0 11 -10 12 -22 l4 -23 -24 25 c-13 14 -22 29 -20 34 3 4
8 3 12 -4 4 -6 11 -11 16 -10z m-52 -5 c-4 -8 -10 -12 -15 -9 -11 6 -2 24 11
24 5 0 7 -7 4 -15z m-309 -42 c-4 -16 -2 -23 7 -22 28 3 49 -1 44 -10 -9 -15
-56 -5 -70 14 -10 14 -13 37 -7 64 1 2 8 -2 17 -10 10 -8 13 -21 9 -36z m39
32 c-4 -8 -8 -15 -10 -15 -2 0 -4 7 -4 15 0 8 4 15 10 15 5 0 7 -7 4 -15z
m298 -27 c-9 -9 -12 -7 -12 12 0 19 3 21 12 12 9 -9 9 -15 0 -24z m-38 1 c-7
-12 -54 -12 -54 0 0 5 6 11 13 14 18 6 48 -4 41 -14z m-113 -196 c12 -15 12
-16 -1 -8 -19 12 -41 16 -36 7 2 -4 -2 -22 -8 -40 l-12 -33 -19 22 -20 22 23
-7 c16 -6 22 -3 22 8 0 9 -5 16 -11 16 -8 0 -8 5 1 15 17 20 44 19 61 -2z m-4
-45 c-3 -8 -6 -5 -6 6 -1 11 2 17 5 13 3 -3 4 -12 1 -19z m200 -22 c-2 -37
-17 -39 -17 -2 0 20 7 36 16 36 1 0 2 -15 1 -34z m-447 -37 c0 -10 -5 -21 -11
-25 -8 -5 -10 1 -5 19 5 22 3 25 -19 22 -18 -1 -25 3 -25 15 0 9 3 20 7 23 10
10 53 -34 53 -54z m41 33 c-13 -2 -27 0 -32 5 -6 6 3 7 23 4 28 -4 29 -6 9 -9z
m94 -60 c-4 -4 -10 -2 -12 4 -2 6 -11 20 -19 30 -14 18 -15 18 -8 -5 4 -16 3
-21 -5 -17 -15 10 -14 43 2 49 14 5 53 -51 42 -61z m95 48 c6 -11 8 -20 6 -20
-3 0 -10 9 -16 20 -6 11 -8 20 -6 20 3 0 10 -9 16 -20z m60 16 c0 -2 -7 -7
-16 -10 -8 -3 -12 -2 -9 4 6 10 25 14 25 6z m30 -15 c0 -5 -7 -11 -15 -15 -8
-3 -15 -12 -15 -20 0 -8 -5 -18 -12 -22 -7 -5 -9 0 -6 14 3 11 1 23 -6 25 -6
2 -3 3 6 2 9 -2 19 3 22 11 6 15 26 19 26 5z m-234 -78 c-10 -10 -19 5 -10 18
6 11 8 11 12 0 2 -7 1 -15 -2 -18z m94 7 c0 -5 -4 -10 -10 -10 -5 0 -10 5 -10
10 0 6 5 10 10 10 6 0 10 -4 10 -10z"/>
<path d="M1035 2281 c-3 -5 -2 -12 3 -15 5 -3 9 1 9 9 0 17 -3 19 -12 6z"/>
<path d="M842 2240 c0 -14 2 -19 5 -12 2 6 2 18 0 25 -3 6 -5 1 -5 -13z"/>
<path d="M805 2213 l-8 -28 -7 25 c-5 14 -8 18 -9 9 -1 -9 -8 -20 -17 -23 -10
-4 -14 -14 -11 -26 6 -24 -8 -36 -17 -14 -3 8 -11 12 -17 8 -7 -4 -9 -3 -5 4
9 16 -6 21 -32 11 -13 -5 -21 -13 -17 -18 3 -5 1 -12 -5 -16 -5 -3 -10 1 -10
10 0 9 -4 14 -10 10 -18 -11 2 -35 30 -35 16 0 31 -4 34 -9 3 -5 -2 -8 -11 -7
-10 0 -18 -7 -20 -19 l-3 -20 9 20 c9 20 10 20 10 -1 1 -29 -39 -41 -46 -13
-3 10 -10 19 -15 19 -5 0 -6 -5 -3 -11 4 -6 0 -9 -11 -7 -13 2 -18 -4 -19 -22
-1 -14 -6 -34 -12 -44 -9 -17 -10 -16 -10 7 0 16 4 24 10 20 6 -3 7 -1 3 5 -4
7 -14 12 -22 12 -8 0 -13 -4 -10 -9 3 -4 -4 -19 -15 -32 -11 -13 -19 -32 -17
-43 5 -34 39 -27 79 16 25 28 38 36 42 27 4 -10 6 -9 6 4 1 24 21 21 21 -4 0
-12 -8 -23 -20 -26 -11 -3 -17 -9 -14 -14 3 -5 10 -6 16 -3 6 4 8 2 4 -4 -6
-10 -62 -27 -81 -24 -12 1 -63 -70 -67 -95 -2 -12 2 -17 14 -15 14 2 16 -3 11
-33 -5 -29 -3 -34 10 -30 10 4 14 18 13 41 -1 19 2 34 5 34 4 0 9 10 13 23 5
18 8 20 16 7 9 -13 10 -13 10 1 0 8 16 29 35 46 19 17 35 36 35 41 0 5 9 16
20 23 12 8 22 27 24 42 3 33 20 52 36 42 9 -6 9 -10 -1 -17 -10 -7 -5 -8 14
-4 24 6 27 4 27 -19 0 -16 4 -24 10 -20 6 4 8 15 5 26 -4 11 -2 19 4 19 6 0
11 -6 11 -12 0 -7 7 0 15 16 18 34 18 36 4 36 -5 0 -7 -5 -3 -12 4 -7 3 -8 -4
-4 -6 4 -9 13 -6 21 4 8 11 12 18 8 6 -4 5 1 -2 10 -8 10 -11 25 -7 39 7 21 6
21 -14 -4 -12 -15 -20 -30 -19 -35 2 -4 -1 -9 -7 -11 -5 -2 -13 -12 -18 -24
-6 -16 -10 -18 -21 -8 -13 10 -12 14 5 31 11 11 17 24 14 28 -3 5 9 23 25 41
29 31 39 60 21 60 -5 0 -12 -12 -16 -27z"/>
<path d="M745 2220 c-3 -5 -1 -10 4 -10 6 0 11 5 11 10 0 6 -2 10 -4 10 -3 0
-8 -4 -11 -10z"/>
<path d="M900 2210 c0 -5 5 -10 10 -10 6 0 10 5 10 10 0 6 -4 10 -10 10 -5 0
-10 -4 -10 -10z"/>
<path d="M650 2189 c0 -5 5 -7 10 -4 6 3 10 8 10 11 0 2 -4 4 -10 4 -5 0 -10
-5 -10 -11z"/>
<path d="M888 2183 c7 -3 16 -2 19 1 4 3 -2 6 -13 5 -11 0 -14 -3 -6 -6z"/>
<path d="M1160 2169 c0 -5 5 -7 10 -4 6 3 10 8 10 11 0 2 -4 4 -10 4 -5 0 -10
-5 -10 -11z"/>
<path d="M895 2159 c-4 -6 -5 -12 -2 -15 2 -3 7 2 10 11 7 17 1 20 -8 4z"/>
<path d="M930 2149 c0 -11 4 -18 10 -14 5 3 7 12 3 20 -7 21 -13 19 -13 -6z"/>
<path d="M1293 2135 c7 -14 16 -25 20 -25 9 0 -9 36 -22 44 -5 4 -4 -5 2 -19z"/>
<path d="M1194 2133 c-9 -14 -6 -21 13 -36 13 -11 27 -17 30 -14 2 3 -4 11
-15 18 -12 7 -17 19 -14 31 6 23 0 23 -14 1z"/>
<path d="M1202 2068 c27 -35 27 -37 8 -43 -24 -8 -26 -30 -4 -39 11 -4 15 -2
11 8 -6 14 9 16 30 3 6 -4 14 -4 17 1 9 14 -18 54 -54 81 l-35 26 27 -37z"/>
<path d="M1218 1968 c-7 -4 -9 -8 -4 -8 5 0 2 -8 -5 -17 -9 -11 -10 -14 -2 -9
7 4 22 2 34 -4 26 -14 32 -9 24 22 -6 25 -24 31 -47 16z m39 -24 c-3 -3 -12
-4 -19 -1 -8 3 -5 6 6 6 11 1 17 -2 13 -5z"/>
<path d="M1277 1917 c-3 -8 -1 -20 4 -28 8 -12 10 -12 18 0 10 15 4 41 -9 41
-4 0 -10 -6 -13 -13z"/>
<path d="M1330 1891 c0 -12 6 -21 16 -21 9 0 14 7 12 17 -5 25 -28 28 -28 4z"/>
<path d="M1301 1826 c-8 -10 -8 -20 4 -42 12 -24 15 -25 15 -9 0 15 2 17 9 7
6 -10 10 -7 15 14 10 37 -20 58 -43 30z"/>
<path d="M555 1711 c9 -16 82 -61 97 -61 6 0 1 11 -12 25 -12 13 -27 22 -32
19 -5 -3 -20 2 -35 11 -14 9 -22 12 -18 6z"/>
<path d="M1280 1701 c0 -5 7 -12 16 -15 24 -9 27 -7 10 9 -17 17 -26 19 -26 6z"/>
<path d="M1027 1679 c7 -7 15 -10 18 -7 3 3 -2 9 -12 12 -14 6 -15 5 -6 -5z"/>
<path d="M1184 1676 c-3 -8 -4 -25 -2 -38 3 -17 5 -13 9 15 5 38 2 47 -7 23z"/>
<path d="M1080 1669 c0 -5 9 -9 20 -9 11 0 20 2 20 4 0 2 -9 6 -20 9 -11 3
-20 1 -20 -4z"/>
<path d="M928 1663 c7 -3 16 -2 19 1 4 3 -2 6 -13 5 -11 0 -14 -3 -6 -6z"/>
<path d="M1077 1630 c-3 -11 -3 -20 -1 -20 2 0 8 9 14 20 6 11 7 20 2 20 -6 0
-12 -9 -15 -20z"/>
<path d="M1260 1591 c0 -6 4 -13 10 -16 6 -3 7 1 4 9 -7 18 -14 21 -14 7z"/>
<path d="M685 1580 c-3 -5 -2 -10 4 -10 5 0 13 5 16 10 3 6 2 10 -4 10 -5 0
-13 -4 -16 -10z"/>
<path d="M1281 1534 c0 -11 3 -14 6 -6 3 7 2 16 -1 19 -3 4 -6 -2 -5 -13z"/>
<path d="M1256 1515 c4 -8 11 -15 16 -15 6 0 5 6 -2 15 -7 8 -14 15 -16 15 -2
0 -1 -7 2 -15z"/>
<path d="M640 1441 c0 -6 4 -13 10 -16 6 -3 7 1 4 9 -7 18 -14 21 -14 7z"/>
<path d="M670 1426 c0 -9 5 -16 10 -16 6 0 10 4 10 9 0 6 -4 13 -10 16 -5 3
-10 -1 -10 -9z"/>
<path d="M1034 1346 c-3 -13 -4 -35 -2 -47 l3 -24 20 23 c11 12 25 22 32 22 7
0 17 8 22 19 9 15 7 17 -13 14 -13 -3 -27 0 -30 6 -12 18 -25 12 -32 -13z"/>
<path d="M1015 1241 c-8 -25 1 -41 21 -41 11 0 14 8 12 27 -4 33 -24 41 -33
14z"/>
<path d="M913 1229 c-1 -11 3 -19 8 -17 6 2 10 8 9 13 -1 5 7 12 17 16 15 6
13 8 -7 8 -19 1 -26 -4 -27 -20z"/>
<path d="M938 1183 c7 -3 16 -2 19 1 4 3 -2 6 -13 5 -11 0 -14 -3 -6 -6z"/>
<path d="M928 1143 c6 -2 18 -2 25 0 6 3 1 5 -13 5 -14 0 -19 -2 -12 -5z"/>
<path d="M1000 1120 c0 -23 15 -27 23 -6 3 8 -1 17 -9 20 -9 4 -14 -1 -14 -14z"/>
<path d="M983 1005 c-9 -25 4 -29 17 -6 7 15 7 21 0 21 -6 0 -13 -7 -17 -15z"/>
<path d="M978 963 c6 -2 18 -2 25 0 6 3 1 5 -13 5 -14 0 -19 -2 -12 -5z"/>
<path d="M967 891 c-5 -22 1 -33 14 -25 12 7 12 44 0 44 -5 0 -11 -9 -14 -19z"/>
<path d="M960 815 c0 -8 5 -15 10 -15 6 0 10 7 10 15 0 8 -4 15 -10 15 -5 0
-10 -7 -10 -15z"/>
<path d="M960 670 c0 -5 7 -7 15 -4 8 4 15 8 15 10 0 2 -7 4 -15 4 -8 0 -15
-4 -15 -10z"/>
<path d="M948 595 c4 -24 32 -36 32 -15 0 6 -4 10 -10 10 -5 0 -10 7 -10 15 0
8 -4 15 -9 15 -4 0 -6 -11 -3 -25z"/>
<path d="M946 515 c-3 -8 -1 -15 4 -15 6 0 10 7 10 15 0 8 -2 15 -4 15 -2 0
-6 -7 -10 -15z"/>
</g>
</svg>
